<?xml version="1.0" standalone="no"?>
<!DOCTYPE svg PUBLIC "-//W3C//DTD SVG 20010904//EN"
 "http://www.w3.org/TR/2001/REC-SVG-20010904/DTD/svg10.dtd">
<svg version="1.0" xmlns="http://www.w3.org/2000/svg"
 width="400.000000pt" height="400.000000pt" viewBox="0 0 400.000000 400.000000"
 preserveAspectRatio="xMidYMid meet">
<metadata>
Created by potrace 1.14, written by Peter Selinger 2001-2017
</metadata>
<g transform="translate(0.000000,400.000000) scale(0.100000,-0.100000)"
fill="#000000" stroke="none">
<path d="M1859 3886 c-2 -2 -36 -6 -74 -10 -246 -23 -536 -122 -755 -260 -36
-22 -66 -44 -68 -48 -2 -4 -8 -8 -14 -8 -19 0 -174 -128 -266 -220 -242 -241
-409 -538 -491 -872 -41 -167 -52 -258 -54 -448 0 -107 8 -238 18 -290 45
-217 86 -350 156 -499 62 -131 140 -259 216 -356 73 -92 162 -186 248 -260 39
-33 72 -63 75 -66 13 -15 169 -119 179 -119 6 0 11 -3 11 -7 0 -9 -1 -8 146
-81 92 -46 302 -124 364 -135 14 -3 59 -12 100 -20 115 -24 182 -30 345 -30
139 -1 250 6 307 19 13 3 39 8 58 10 28 4 78 16 120 29 3 1 19 5 35 9 51 14
107 33 190 66 448 178 835 561 1020 1010 28 67 82 228 90 267 3 13 7 33 10 46
42 189 44 200 40 407 -4 212 -5 235 -31 360 -47 234 -134 452 -261 651 -48 75
-67 102 -128 177 -45 56 -214 223 -270 268 -27 21 -52 41 -55 44 -3 3 -27 20
-55 38 -27 17 -55 36 -62 42 -7 5 -17 10 -23 10 -5 0 -10 3 -10 8 0 4 -10 12
-23 18 -12 6 -58 29 -102 51 -145 74 -261 117 -400 150 -50 12 -164 34 -200
39 -51 7 -380 16 -386 10z"/>
</g>
</svg>
