<svg xmlns="http://www.w3.org/2000/svg" xmlns:xlink="http://www.w3.org/1999/xlink" viewBox="0,0,256,256" width="24px" height="24px" fill-rule="nonzero"><g fill="#6c6c6c" fill-rule="nonzero" stroke="none" stroke-width="1" stroke-linecap="butt" stroke-linejoin="miter" stroke-miterlimit="10" stroke-dasharray="" stroke-dashoffset="0" font-family="none" font-weight="none" font-size="none" text-anchor="none" style="mix-blend-mode: normal"><g transform="scale(10.66667,10.66667)"><path d="M3,3h18v2h-18zM19.008,14.02c-1.38,0 -2.629,0.553 -3.533,1.457c-0.904,0.904 -1.457,2.153 -1.457,3.533c0,2.76 2.231,4.99 4.991,4.99c2.76,0 4.991,-2.23 4.991,-4.991c-0.001,-2.757 -2.232,-4.988 -4.992,-4.989zM21.844,17.594l-1.414,1.414l1.414,1.414l-1.414,1.414l-1.414,-1.414l-1.414,1.414l-1.414,-1.414l1.414,-1.414l-1.414,-1.414l1.414,-1.414l1.414,1.414l1.414,-1.414z"></path><path d="M12.294,21c-0.189,-0.634 -0.294,-1.305 -0.294,-2h-1v-6.574l-4.641,-7.426h11.283l-4.642,7.426v2.982c0.51,-0.849 1.19,-1.583 2,-2.148v-0.26l5,-8v-2h-16v2l5,8v8z"></path><path d="M12.08,20c-0.047,-0.327 -0.08,-0.66 -0.08,-1c0,-1.906 0.764,-3.632 2,-4.894v-2.106l5,-8h-14l5,8v8z" opacity="0.3"></path></g></g></svg>