<svg xmlns="http://www.w3.org/2000/svg"  viewBox="0 0 48 48" width="48px" height="48px"><path fill="#ffee58" d="M47 14L38 18 41 21 33 25 28 21 31 17 24.002 6 17.308 16.703 20 21 15 25 7 21 10 18 1 14 7 42 41 42z"/><path fill="#ffc107" d="M40 20L42 22 42 23 33 28 28 24 28 21 29.444 19.074 24 10 18.672 18.88 20 21 20 24 15 28 6 23 6 22 8 20 1.732 17.417 7 42 24.002 42 41 42 46.267 17.419z"/><path fill="#ffa000" d="M43 33L5 33 5.44 35 42.56 35z"/><path fill="#455a64" d="M24 26A8 8 0 1 0 24 42A8 8 0 1 0 24 26Z"/><path fill="#fffde7" d="M24 28A6 6 0 1 0 24 40A6 6 0 1 0 24 28Z"/><path fill="#ff9800" d="M30,34H18c0-3.314,2.686-6,6-6S30,30.686,30,34z"/><path fill="#455a64" d="M17,34c0,0.341,0.041,0.674,0.105,1h13.79C30.959,34.674,31,34.341,31,34s-0.041-0.674-0.105-1 h-13.79C17.041,33.326,17,33.659,17,34z"/><path fill="#455a64" d="M24 31A3 3 0 1 0 24 37A3 3 0 1 0 24 31Z"/><path fill="#fff" d="M24 33A1 1 0 1 0 24 35A1 1 0 1 0 24 33Z"/></svg>
