<svg xmlns="http://www.w3.org/2000/svg"  viewBox="0 0 48 48" width="48px" height="48px"><path fill="#fbc02d" d="M48,21l-7,18H7L0,21l4,3c0,0,0,0,0,1c0,2.25,1.88,3,3,3c2,0,4-1,4-3.5c0-2-2-2.5-2-2.5l1-7l4,6 c0,0-1,0.75-1,2c0,2.38,2.38,3,3.88,3c1.87,0,5.12-1,5.12-6c0-3-3-5-3-5l5-8l5,8c0,0-3,2-3,5c0,5,3.25,6,5.12,6 c1.5,0,3.88-0.62,3.88-3c0-1.25-1-2-1-2l4-6l1,7c0,0-2,0.5-2,2.5c0,2.5,2,3.5,4,3.5c1.12,0,3-0.75,3-3c0-1,0-1,0-1L48,21z"/><path fill="#ffd54f" d="M41 39c-.552 0-33.448 0-34 0s-1 .448-1 1c0 .552.448 1 1 1 .225 0 33.775 0 34 0 .552 0 1-.448 1-1C42 39.448 41.552 39 41 39zM10 34A1 1 0 1 0 10 36 1 1 0 1 0 10 34zM7 35c0 .55-.45 1-1 1-.06 0-.12-.01-.17-.02l-.62-1.59C5.39 34.15 5.68 34 6 34 6.55 34 7 34.45 7 35zM14 34A1 1 0 1 0 14 36 1 1 0 1 0 14 34zM18 34A1 1 0 1 0 18 36 1 1 0 1 0 18 34zM30 34A1 1 0 1 0 30 36 1 1 0 1 0 30 34zM34 34A1 1 0 1 0 34 36 1 1 0 1 0 34 34zM38 34A1 1 0 1 0 38 36 1 1 0 1 0 38 34zM42.79 34.39l-.62 1.59C42.12 35.99 42.06 36 42 36c-.55 0-1-.45-1-1s.45-1 1-1C42.32 34 42.61 34.15 42.79 34.39z"/><path fill="#ff8a80" d="M24 12A2 2 0 1 0 24 16A2 2 0 1 0 24 12Z"/><path fill="#ff1744" d="M24 14h2c0-1.105-.895-2-2-2V14zM24 14h-2c0 1.105.895 2 2 2V14z"/><path fill="#d32f2f" d="M24,14v2c1.105,0,2-0.895,2-2H24z"/><path fill="#ff8a80" d="M24 31A3 3 0 1 0 24 37A3 3 0 1 0 24 31Z"/><path fill="#ff1744" d="M24 31v3h3C27 32.34 25.66 31 24 31zM21 34c0 1.66 1.34 3 3 3v-3H21z"/><path fill="#d32f2f" d="M24,34v3c1.66,0,3-1.34,3-3H24z"/><path fill="#ffd54f" d="M41,30c-2.25,0-4.12-0.9-5.15-2.48l-0.51-0.78l-0.81,0.45C33.58,27.72,32.4,28,31.12,28 c-2.73,0-5.06-1.4-6.22-3.74L24,22.45l-0.9,1.81C21.94,26.6,19.61,28,16.88,28c-1.28,0-2.46-0.28-3.41-0.81l-0.81-0.45l-0.51,0.78 C11.12,29.1,9.25,30,7,30c-1.77,0-3.75-0.99-4.61-2.86l1.56,4.02l0.07,0.18C4.98,31.78,6.01,32,7,32c2.59,0,4.84-0.96,6.29-2.67 c1.08,0.44,2.3,0.67,3.59,0.67c2.91,0,5.47-1.25,7.12-3.41c1.65,2.16,4.21,3.41,7.12,3.41c1.29,0,2.51-0.23,3.59-0.67 C36.16,31.04,38.41,32,41,32c0.99,0,2.02-0.22,2.98-0.66l0.07-0.18l1.56-4.02C44.75,29.01,42.77,30,41,30z"/></svg>