<svg xmlns="http://www.w3.org/2000/svg"  viewBox="0 0 24 24" width="24px" height="24px"><path fill="#303C42" d="M20.5,3h-4C16.2236328,3,16,3.2236328,16,3.5v0.3538208 c-0.3545532-0.210022-0.5513306-0.5743408-0.5527344-0.5774536C15.3623047,3.1069336,15.1894531,3,15,3H9 C8.8105469,3,8.6376953,3.1069336,8.5527344,3.2763672C8.4030151,3.5756226,8.1938477,3.7467041,8,3.8496704V3.5 C8,3.2236328,7.7763672,3,7.5,3h-4C1.5703125,3,0,4.5703125,0,6.5v11C0,19.4296875,1.5703125,21,3.5,21h4h9h4 c1.9296875,0,3.5-1.5703125,3.5-3.5v-11C24,4.5703125,22.4296875,3,20.5,3z"/><path fill="#596368" d="M9.2871094,4h5.4375C14.9397583,4.3023682,15.3634033,4.7598877,16,4.9295044V20H8V4.9182739 C8.3814087,4.8141479,8.9017334,4.5741577,9.2871094,4z"/><path d="M9.965332,4H9.2871094C8.9017334,4.5741577,8.3814087,4.8141479,8,4.9182739V20h1V4.9182739 C9.2860718,4.8141479,9.6763306,4.5741577,9.965332,4z" opacity=".1"/><path fill="#FFF" d="M14.7246094,4H14.043457C14.204834,4.3023682,14.522583,4.7598877,15,4.9295044V20h1 V4.9295044C15.3634033,4.7598877,14.9397583,4.3023682,14.7246094,4z" opacity=".2"/><path fill="#15BEF0" d="M7,20H3.5C2.1210938,20,1,18.878418,1,17.5v-11C1,5.121582,2.1210938,4,3.5,4H7V20z"/><path fill="#D75532" d="M23,17.5c0,1.378418-1.1210938,2.5-2.5,2.5H17V4h3.5C21.8789062,4,23,5.121582,23,6.5V17.5z"/><path fill="#FFF" d="M2.5,17.5v-11C2.5,5.121582,3.4682007,4,4.6591187,4H3.5C2.1210938,4,1,5.121582,1,6.5v11 C1,18.878418,2.1210938,20,3.5,20h1.1591187C3.4682007,20,2.5,18.878418,2.5,17.5z" opacity=".2"/><path d="M20.5,4h-1.1591187C20.5317993,4,21.5,5.121582,21.5,6.5v11c0,1.378418-0.9682007,2.5-2.1591187,2.5H20.5 c1.3789062,0,2.5-1.121582,2.5-2.5v-11C23,5.121582,21.8789062,4,20.5,4z" opacity=".1"/><circle cx="4" cy="10" r="2" fill="#303C42"/><circle cx="4" cy="13.5" r=".5" fill="#303C42"/><circle cx="4" cy="15.5" r=".5" fill="#303C42"/><circle cx="5" cy="14.5" r=".5" fill="#303C42"/><circle cx="3" cy="14.5" r=".5" fill="#303C42"/><circle cx="20" cy="14" r="2" fill="#303C42"/><circle cx="20" cy="10.5" r=".5" fill="#303C42"/><circle cx="20" cy="8.5" r=".5" fill="#303C42"/><circle cx="19" cy="9.5" r=".5" fill="#303C42"/><circle cx="21" cy="9.5" r=".5" fill="#303C42"/><path fill="#303C42" d="M4.5,6h1C5.7763672,6,6,5.7763672,6,5.5S5.7763672,5,5.5,5h-1C4.2236328,5,4,5.2236328,4,5.5 S4.2236328,6,4.5,6z"/><path fill="#303C42" d="M18.5,6c0,0.2763672,0.2236328,0.5,0.5,0.5s0.5-0.2236328,0.5-0.5C19.7763672,6,20,5.7763672,20,5.5 S19.7763672,5,19.5,5c0-0.2763672-0.2236328-0.5-0.5-0.5S18.5,4.7236328,18.5,5C18.2236328,5,18,5.2236328,18,5.5 S18.2236328,6,18.5,6z"/><linearGradient id="jE76SdRX5BSGvhYH-rHBta" x1="-.26" x2="24.26" y1="6.283" y2="17.717" gradientUnits="userSpaceOnUse"><stop offset="0" stop-color="#fff" stop-opacity=".2"/><stop offset="1" stop-color="#fff" stop-opacity="0"/></linearGradient><path fill="url(#jE76SdRX5BSGvhYH-rHBta)" d="M20.5,3h-4C16.2236328,3,16,3.2236328,16,3.5v0.3538208 c-0.3545532-0.210022-0.5513306-0.5743408-0.5527344-0.5774536C15.3623047,3.1069336,15.1894531,3,15,3H9 C8.8105469,3,8.6376953,3.1069336,8.5527344,3.2763672C8.4030151,3.5756226,8.1938477,3.7467041,8,3.8496704V3.5 C8,3.2236328,7.7763672,3,7.5,3h-4C1.5703125,3,0,4.5703125,0,6.5v11C0,19.4296875,1.5703125,21,3.5,21h4h9h4 c1.9296875,0,3.5-1.5703125,3.5-3.5v-11C24,4.5703125,22.4296875,3,20.5,3z"/></svg>