<svg xmlns="http://www.w3.org/2000/svg"  viewBox="0 0 48 48" width="48px" height="48px"><path fill="#757575" d="M36 35c.548 4.384 2.239 8 5 8s5-3 5-8c0-10-2-15-5-18-1 0-6 0-6 0S35 27 36 35zM12 35c-.548 4.384-2.239 8-5 8s-5-3-5-8c0-10 2-15 5-18 1 0 6 0 6 0S13 27 12 35zM31 43H17V12c1.105 0 2-.895 2-2h10c0 1.105.895 2 2 2V43z"/><path fill="#424242" d="M32 6v8h-1v-2c-1.1 0-2-.9-2-2V6H32zM41 32c0 4.23-.234 7-1.836 7-1.592 0-2.58-3.06-2.887-6.77C36.159 30.86 36.064 29.42 36 28h4.979C41 29.21 41 30.54 41 32zM15 17H6l0 0c0-4.418 3.582-8 8-8h1V17zM42 11h-9V3h1C38.418 3 42 6.582 42 11L42 11z"/><path fill="#e57373" d="M31,37h3c3.866,0,7-3.134,7-7V11c0-3.866-3.134-7-7-7h-3V37z"/><path fill="#4fc3f7" d="M17,43h-3c-3.866,0-7-3.134-7-7V17c0-3.866,3.134-7,7-7h3V43z"/><path fill="#757575" d="M34 26A2 2 0 1 0 34 30A2 2 0 1 0 34 26Z"/><path fill="#e0e0e0" d="M23,28h-1c-1.105,0-2-0.895-2-2v-2c0-1.105,0.895-2,2-2h1V28z"/><g><path fill="#424242" d="M36 9A1 1 0 1 0 36 11 1 1 0 1 0 36 9zM38 11A1 1 0 1 0 38 13 1 1 0 1 0 38 11zM34 11A1 1 0 1 0 34 13 1 1 0 1 0 34 11zM36 13A1 1 0 1 0 36 15 1 1 0 1 0 36 13zM12 23A1 1 0 1 0 12 25 1 1 0 1 0 12 23zM12 15A2 2 0 1 0 12 19 2 2 0 1 0 12 15zM36 19A2 2 0 1 0 36 23 2 2 0 1 0 36 19zM14 25A1 1 0 1 0 14 27 1 1 0 1 0 14 25zM10 25A1 1 0 1 0 10 27 1 1 0 1 0 10 25zM12 27A1 1 0 1 0 12 29 1 1 0 1 0 12 27zM26 28h-1v-6h1c1.105 0 2 .895 2 2v2C28 27.105 27.105 28 26 28zM34 27A1 1 0 1 0 34 29 1 1 0 1 0 34 27z"/></g></svg>