<svg xmlns="http://www.w3.org/2000/svg"  viewBox="0 0 48 48" width="48px" height="48px"><path fill="#37474F" d="M33,27l6,0.001c3.314,0,6,2.686,6,5.999l0,0c0,3.313-2.686,6-6,6h-6V27z"/><path fill="#546E7A" d="M39 29A4 4 0 1 0 39 37 4 4 0 1 0 39 29zM11 25.001c-4.418 0-8 3.582-8 8l0 0c0 4.419 3.582 8 8 8V25.001z"/><path fill="#DD2C00" d="M13 23H32V25H13z"/><path fill="#FF3D00" d="M11 25.001V41c0 0 17.334 0 20 0 3 0 3-3 3-3V25.001H11zM31 7c-3 0-14 0-17 0s-3 3-3 3v13h23V10C34 10 34 7 31 7z"/><path fill="#263238" d="M23 28H10.976c-2.717 0-4.919 2.283-4.919 5l0 0c0 2.717 2.202 5 4.919 5H23V28zM29 19c0 .553-.447 1-1 1H15c-.553 0-1-.447-1-1v-8c0-.553.447-1 1-1h13c.553 0 1 .447 1 1V19z"/><path fill="#90A4AE" d="M31 38c0 .552-.447 1-1 1H18c-.553 0-1-.448-1-1V28c0-.552.447-1 1-1h12c.553 0 1 .448 1 1V38zM31 20c0 .552-.447 1-1 1H18c-.553 0-1-.448-1-1V10c0-.552.447-1 1-1h12c.553 0 1 .448 1 1V20z"/><g><path fill="#BBDEFB" d="M19 11H29V19H19zM19 29H29V37H19z"/></g><g><path fill="#ECEFF1" d="M11 30H13V36H11z"/><path fill="#ECEFF1" d="M9 32H15V34H9z"/></g><g><path fill="#AEEA00" d="M39 31A2 2 0 1 0 39 35 2 2 0 1 0 39 31zM3 32.994C3 32.996 3 32.998 3 33c0 .302.022.597.052.891C3.057 33.928 3.064 33.963 3.068 34H4c.553 0 1-.448 1-1s-.447-1-1-1H3.069c-.005.038-.013.075-.018.113C3.023 32.404 3.001 32.695 3 32.994z"/></g></svg>