<svg xmlns="http://www.w3.org/2000/svg"  viewBox="0 0 50 50" width="50px" height="50px" baseProfile="basic"><polygon fill="#e64e4e" points="38,11.721 30,7.102 20,7.102 12,11.721 7,20.381 7,29.619 12,38.279 20,42.898 30,42.898 38,38.279 43,29.619 43,20.381"/><polygon fill="#a8a8a8" points="43,29.619 38,38.279 30,42.898 25,40.011 25,30.774 30,22.113 38,17.494 43,20.381"/><polygon fill="#b33d3d" points="43,23.845 25,34.238 25,30.774 30,22.113 38,17.494 43,20.381"/><polygon fill="#ccc" points="20,22.113 25,30.774 25,40.011 20,42.898 12,38.279 7,29.619 7,20.381 12,17.494"/><polygon fill="#ff5757" points="20,22.113 25,30.774 25,34.238 7,23.845 7,20.381 12,17.494"/><polygon fill="#bababa" points="20,42.898 25,40.011 30,42.898"/><polygon fill="#cc4646" points="38,11.721 38,17.494 43,20.381"/><polygon fill="#d94a4a" points="20,22.113 30,22.113 25,30.774"/><polygon fill="#f25353" points="12,11.721 7,20.381 12,17.494"/><polygon fill="gray" points="7,23.845 25,34.238 25,36.547 7,26.155"/><polygon fill="gray" points="14,34.815 11,29.619 11,25 14,23.268 18,25.577 21,30.774 21,35.392 18,37.124"/><polygon fill="#ccc" points="15,33.083 13,29.619 13,27.309 15,26.155 17,27.309 19,30.774 19,33.083 17,34.238"/><polygon fill="#737373" points="25,34.238 43,23.845 43,26.155 25,36.547"/></svg>