<?xml version="1.0" encoding="iso-8859-1"?><!-- Generator: Adobe Illustrator 19.1.1, SVG Export Plug-In . SVG Version: 6.00 Build 0)  --><svg xmlns="http://www.w3.org/2000/svg" xmlns:xlink="http://www.w3.org/1999/xlink" viewBox="0 0 48 48" width="48px" height="48px"><path style="fill:#FFD600;" d="M16,16l5.969-11.664c0.87-1.736,3.359-1.724,4.212,0.021L32,16l11.998,1.393  c1.925,0.288,2.683,2.652,1.282,4L36,30l2.966,12.4c0.32,1.914-1.701,3.363-3.42,2.451l-11.552-5.845l-11.561,5.737  c-1.728,0.895-3.734-0.574-3.396-2.485L12,30l-9.296-8.816c-1.387-1.361-0.606-3.717,1.321-3.987L16,16z"/><circle style="fill:#FFFFFF;" cx="24" cy="27" r="8"/><path style="fill:#FF3D00;" d="M32,27H16c0-4.418,3.582-8,8-8S32,22.582,32,27z"/><path style="fill:#455A64;" d="M16,27c0,0.339,0.028,0.672,0.069,1h15.862C31.972,27.672,32,27.339,32,27s-0.028-0.672-0.069-1  H16.069C16.028,26.328,16,26.661,16,27z"/><circle style="fill:#455A64;" cx="24" cy="27" r="4"/><circle style="fill:#FFFFFF;" cx="24" cy="27" r="2"/></svg>