<svg xmlns="http://www.w3.org/2000/svg"  viewBox="0 0 48 48" width="48px" height="48px"><path fill="#bf360c" d="M16 15H32V33H16z"/><path fill="#ff9800" d="M24,37c-2.193,0-5-6-5-6v-6h10v6C29,31,26.192,37,24,37"/><path fill="#ffb74d" d="M33,14c0-7.635-18-4.971-18,0v7c0,4.971,4.028,9,9,9c4.971,0,9-4.029,9-9V14z"/><path fill="#ff5722" d="M24,4C17.925,4,9,7.404,9,27.286L16,32V19l12-7l4,5v15l7-6c0-4.025-0.674-20-11-20l-1-2H24z"/><path fill="#784719" d="M27,21c0-0.551,0.448-1,1-1s1,0.449,1,1s-0.448,1-1,1S27,21.551,27,21 M19,21c0,0.551,0.448,1,1,1 s1-0.449,1-1s-0.448-1-1-1S19,20.449,19,21"/><path fill="#2196f3" d="M29,31L29,31c0,0-1,2-5,2s-5-2-5-2S8,32.986,8,44h32C40,33.025,29,31,29,31"/><path fill="#ff3d00" d="M30,41H18c0-3.314,2.686-6,6-6S30,37.686,30,41z"/><path fill="#fff" d="M24 39A2 2 0 1 0 24 43A2 2 0 1 0 24 39Z"/></svg>