<?xml version="1.0" encoding="iso-8859-1"?>
<!-- Generator: Adobe Illustrator 24.1.2, SVG Export Plug-In . SVG Version: 6.00 Build 0)  -->
<svg version="1.1" baseProfile="basic" id="Layer_1"
	 xmlns="http://www.w3.org/2000/svg" xmlns:xlink="http://www.w3.org/1999/xlink" x="0px" y="0px" viewBox="0 0 48 48"
	 xml:space="preserve">
<path style="fill:#424242;" d="M24,44c-6,0-12-5-12-11c0-4,2-8,2-8s-6.226-3.84-9-8C1,11,2,4,2,4s8,0,13,9c2.172,3.909,3,8,3,8
	s3-1,6-1s6,1,6,1s0.828-4.091,3-8c5-9,13-9,13-9s1,7-3,13c-2.774,4.16-9,8-9,8s2,4,2,8C36,39,30,44,24,44"/>
<ellipse style="fill:none;stroke:#FDD835;stroke-width:2;stroke-miterlimit:10;" cx="24" cy="27.5" rx="3" ry="3.5"/>
<path style="fill:#E53935;" d="M33.936,31c0.073,2.333,0.073,7-6.936,7C27,34.5,29.336,31,33.936,31z M14.064,31
	c-0.073,2.333-0.073,7,6.936,7C21,34.5,18.664,31,14.064,31z"/>
<path style="fill:#FDD835;" d="M43,17c0.624-0.936,1.115-1.896,1.518-2.851c-1.857-3.198-4.461-4.97-7.809-5.942
	c-1.091,1.017-2.157,2.287-3.137,3.859c2.274,0.417,7.04,3.013,8.267,6.446C42.266,18.017,42.659,17.511,43,17z M5,17
	c-0.624-0.936-1.115-1.896-1.518-2.851c1.857-3.198,4.461-4.97,7.809-5.942c1.091,1.017,2.157,2.287,3.137,3.859
	c-2.274,0.417-7.04,3.013-8.267,6.446C5.734,18.017,5.341,17.511,5,17z"/>
<path d="M30,33c0.552,0,1,0.895,1,2s-0.448,2-1,2s-1-0.895-1-2S29.448,33,30,33z M18,33c0.552,0,1,0.895,1,2s-0.448,2-1,2
	s-1-0.895-1-2S17.448,33,18,33z M24,41c0.552,0,1,0.224,1,0.5S24.552,42,24,42s-1-0.224-1-0.5S23.448,41,24,41z"/>
</svg>