<?xml version="1.0" standalone="no"?>
<!DOCTYPE svg PUBLIC "-//W3C//DTD SVG 20010904//EN"
 "http://www.w3.org/TR/2001/REC-SVG-20010904/DTD/svg10.dtd">
<svg version="1.0" xmlns="http://www.w3.org/2000/svg"
 width="480.000000pt" height="480.000000pt" viewBox="0 0 480.000000 480.000000"
 preserveAspectRatio="xMidYMid meet">
<metadata>
Created by potrace 1.14, written by Peter Selinger 2001-2017
</metadata>
<g transform="translate(0.000000,480.000000) scale(0.100000,-0.100000)"
fill="#000000" stroke="none">
<path d="M0 2400 l0 -2400 2400 0 2400 0 0 2400 0 2400 -2400 0 -2400 0 0
-2400z m1950 1800 c0 -5 7 -6 17 -3 9 4 14 2 10 -3 -3 -6 3 -11 14 -11 10 -1
19 4 19 12 0 8 9 13 20 12 12 -1 20 -8 20 -20 0 -14 5 -18 20 -14 20 5 28 -7
11 -18 -15 -8 -61 16 -54 29 4 6 -1 5 -10 -3 -16 -13 -15 -15 13 -29 28 -13
29 -16 13 -28 -37 -28 -60 -14 -54 32 1 7 -6 11 -15 10 -9 0 -23 9 -31 22 -10
14 -11 22 -4 22 6 0 11 -4 11 -10z m161 -9 c1 -13 2 -13 6 2 4 15 23 17 224
17 206 0 219 -1 219 -18 0 -25 53 -24 58 1 4 19 27 23 37 7 3 -5 -2 -10 -12
-10 -15 0 -16 -2 -3 -10 12 -8 11 -10 -7 -10 -23 0 -42 -38 -29 -58 4 -6 -3
-8 -15 -5 -11 3 -17 9 -12 12 17 11 22 39 8 44 -18 8 -25 -2 -25 -35 0 -27 -1
-28 -55 -28 l-55 0 0 -55 0 -55 160 0 c141 0 160 2 169 18 6 9 11 11 11 5 0
-8 15 -13 39 -13 46 0 55 -10 53 -58 -2 -44 6 -56 24 -41 8 6 14 7 14 2 0 -5
25 -9 56 -9 49 1 58 4 65 24 5 12 6 29 2 37 -3 9 -2 15 3 14 21 -4 28 2 14 11
-9 6 -10 10 -3 10 19 0 26 -20 13 -35 -10 -12 -10 -15 1 -16 8 0 5 -4 -6 -9
-17 -7 -17 -9 -2 -9 9 -1 17 -5 17 -11 0 -5 -7 -7 -15 -4 -8 4 -15 1 -15 -5 0
-6 8 -11 19 -11 10 0 24 -7 31 -15 10 -12 10 -15 0 -15 -8 0 -4 -8 8 -19 22
-18 20 -34 -2 -25 -7 3 -13 -2 -13 -10 0 -21 26 -29 45 -14 10 8 13 9 9 1 -5
-7 -1 -10 10 -7 28 7 47 -12 47 -48 1 -24 5 -33 18 -32 9 1 14 -4 12 -10 -3
-7 5 -12 20 -12 14 0 22 4 20 8 -3 4 2 8 11 8 9 0 14 -4 10 -9 -3 -5 0 -13 6
-16 5 -4 9 -24 8 -46 -2 -21 0 -41 4 -45 4 -4 7 2 7 14 0 12 5 22 11 22 6 0 8
-9 4 -21 -5 -14 -3 -19 3 -15 6 3 13 2 17 -4 4 -6 -9 -10 -32 -11 -21 -1 -58
-2 -83 -3 l-45 -1 -3 -52 -3 -53 -48 0 c-26 0 -50 -2 -52 -4 -2 -2 -2 -27 -1
-55 l4 -51 48 0 49 0 3 53 3 52 105 0 c86 0 105 -3 106 -15 1 -8 2 -32 3 -52
l1 -38 50 0 50 0 0 -264 0 -265 -52 -3 -53 -3 -1 -40 c0 -22 -2 -46 -2 -52 -2
-10 -31 -13 -108 -13 l-105 0 3 -52 3 -53 53 -3 52 -3 0 -50 c0 -44 2 -49 23
-50 12 0 47 -2 77 -4 30 -1 67 -3 83 -4 l27 -1 0 -100 0 -100 -42 -1 c-24 -1
-46 -1 -50 0 -5 0 -9 -25 -9 -56 -1 -32 -2 -80 -3 -108 l-1 -50 -48 -1 c-27
-1 -50 -4 -53 -7 -3 -3 -5 -75 -5 -160 l0 -156 -51 -3 -51 -3 -4 -48 c-3 -33
0 -49 9 -52 7 -3 55 -6 107 -8 l95 -2 0 -102 1 -102 -50 -3 -50 -3 -3 -52 -3
-53 -55 0 -55 0 3 -107 3 -108 -53 -3 -53 -3 3 -102 3 -102 50 -1 50 -1 0 -54
0 -54 -52 -3 -53 -3 0 -50 c0 -48 0 -49 -32 -50 -18 -1 -43 0 -55 1 -21 1 -23
-3 -23 -55 l0 -57 -62 6 c-35 3 -72 6 -83 7 -18 0 -19 1 -2 10 9 6 21 8 26 4
6 -3 9 8 9 25 -1 18 -6 29 -12 27 -6 -3 -10 -9 -9 -14 1 -5 -11 -9 -27 -9 -16
0 -27 3 -24 8 3 5 10 5 16 2 6 -4 16 0 22 8 6 8 18 17 26 21 8 3 -7 6 -35 6
l-50 1 0 -47 0 -48 -57 -3 -58 -3 0 55 c0 49 2 55 23 58 16 2 22 9 21 26 0 12
4 21 10 19 6 -2 11 -12 11 -22 0 -10 8 -19 18 -21 14 -2 17 6 17 48 0 45 -2
49 -22 48 -75 -6 -78 -4 -78 55 l0 55 -56 0 -55 0 2 52 3 53 -104 0 -105 0 0
-50 0 -50 -52 -3 -52 -3 -3 -52 -3 -52 -50 -3 c-27 -2 -101 -1 -163 3 -112 7
-112 7 -108 31 3 14 1 22 -5 19 -5 -4 -9 -1 -9 5 0 6 -5 8 -12 4 -7 -4 -8 -3
-4 5 4 6 12 9 17 6 5 -4 9 3 9 15 0 18 5 20 53 18 l52 -3 3 107 3 107 -53 3
-53 3 -3 53 -3 52 55 0 56 0 0 160 0 160 -49 0 -48 0 -7 -77 c-3 -42 -6 -111
-6 -155 0 -43 -3 -79 -7 -79 -5 -1 -27 -2 -50 -3 l-41 -2 -6 120 c-2 67 -5
126 -6 131 0 6 2 47 6 93 l6 82 -106 0 -106 0 -1 38 c-1 20 -1 42 0 49 2 19
-20 27 -65 24 l-41 -2 -1 50 -2 50 53 3 52 3 3 53 3 52 160 0 159 0 0 55 0 55
160 0 160 0 0 50 0 50 -215 0 -215 0 0 55 0 54 -57 3 -56 3 0 47 c0 28 -3 45
-9 42 -5 -3 -7 -13 -4 -21 3 -8 1 -11 -5 -8 -5 4 -7 16 -3 27 5 17 3 20 -11
15 -9 -4 -28 -7 -42 -7 -22 0 -24 -2 -13 -15 11 -13 10 -14 -6 -8 -17 6 -17 5
-6 -10 8 -9 12 -22 9 -29 -3 -8 -9 -1 -16 15 -6 16 -9 33 -5 38 3 5 -13 9 -35
9 -40 0 -41 -1 -41 -36 0 -19 -4 -33 -8 -30 -5 3 -7 18 -4 34 2 16 -1 33 -7
36 -6 4 -11 29 -11 57 l0 49 -45 0 c-42 0 -58 -11 -35 -25 6 -3 10 -12 10 -18
0 -7 -4 -6 -10 3 -8 12 -10 11 -10 -7 0 -12 8 -27 18 -33 16 -11 16 -11 0 -6
-10 3 -18 1 -18 -4 0 -6 -25 -10 -55 -10 l-55 0 0 50 c0 33 -4 50 -12 51 -7 1
-31 2 -53 3 l-40 1 -3 108 -3 107 -54 0 -55 0 0 271 0 271 33 -2 c77 -4 77 -5
77 50 l0 50 55 0 55 0 0 55 0 55 105 0 105 0 0 49 c0 28 -4 52 -8 55 -5 3 -52
7 -105 8 -54 2 -97 6 -97 11 0 4 7 7 15 7 8 0 15 5 15 11 0 5 -4 7 -10 4 -5
-3 -10 -4 -10 -1 0 2 -3 12 -7 22 -4 12 -3 15 5 10 7 -4 12 -1 12 8 0 9 -6 16
-12 16 -10 0 -9 3 1 9 10 7 11 13 2 30 -12 21 -7 41 9 41 5 0 7 -12 4 -26 -3
-17 -1 -23 7 -19 6 4 14 3 18 -2 8 -14 51 -26 51 -15 0 16 -37 52 -45 44 -4
-4 -4 4 0 17 5 16 4 21 -4 17 -7 -4 -9 -1 -5 8 8 22 36 8 29 -15 -4 -13 -1
-19 9 -19 9 0 15 3 15 8 -7 42 1 49 49 48 26 0 48 4 49 9 1 6 -9 9 -22 8 -19
-1 -25 5 -30 28 -6 24 -9 28 -21 18 -11 -9 -14 -8 -14 4 0 9 7 14 18 12 9 -1
22 2 28 6 7 6 17 3 25 -8 8 -9 9 -14 3 -10 -7 4 -18 -1 -25 -10 -12 -15 -12
-16 4 -10 11 4 16 3 12 -3 -3 -6 1 -10 9 -10 9 0 16 12 18 32 2 24 9 34 23 36
32 6 49 23 33 33 -10 7 -10 11 0 21 11 11 13 10 10 -1 -2 -8 6 -14 20 -16 12
-1 22 4 22 11 0 18 -17 27 -23 12 -3 -7 -6 -3 -6 10 -1 12 -5 22 -10 22 -15 0
-28 -24 -26 -48 2 -27 -14 -40 -26 -21 -12 19 -11 32 1 24 6 -3 10 1 10 9 0 9
-4 16 -8 16 -5 0 -9 6 -9 13 0 8 14 13 34 14 36 1 84 -34 96 -70 6 -15 3 -17
-16 -11 -34 11 -49 10 -54 -3 -3 -8 17 -11 70 -11 l75 1 -2 28 c0 16 -4 29 -8
29 -4 0 -2 11 4 25 6 14 16 25 22 25 6 0 17 9 24 20 11 18 10 20 -8 20 -19 0
-28 28 -13 43 12 13 41 -47 31 -65 -7 -16 -4 -18 27 -18 40 0 45 7 13 20 -23
9 -23 9 2 7 14 -1 31 -6 39 -11 9 -6 12 -5 7 2 -3 6 -2 14 4 17 6 4 9 1 8 -6
-2 -8 7 -14 20 -15 l23 -1 -21 19 c-22 20 -26 38 -9 38 5 0 8 -4 4 -9 -3 -5
-1 -12 4 -15 5 -3 11 1 15 9 3 8 1 17 -4 20 -6 4 -10 12 -10 18 0 7 6 4 14 -5
7 -10 16 -15 19 -11 4 3 7 -1 7 -11 0 -11 -4 -15 -12 -10 -10 6 -10 4 0 -8 23
-28 4 -50 -42 -46 l-41 3 -3 -58 -3 -57 50 0 50 0 3 53 3 52 80 2 c44 1 92 2
108 2 26 1 27 3 27 50 0 28 -4 52 -8 55 -5 3 -7 20 -4 38 4 32 4 32 -12 13
-17 -20 -17 -20 -11 2 4 15 0 26 -15 36 -21 14 -21 15 5 15 16 0 25 -6 26 -17z
m494 9 c3 -5 -1 -10 -10 -10 -9 0 -13 5 -10 10 3 6 8 10 10 10 2 0 7 -4 10
-10z m-641 -62 c-3 -4 -10 -8 -15 -8 -6 0 -7 5 -4 10 3 6 1 10 -4 10 -6 0 -11
5 -11 10 0 6 8 5 19 -2 11 -7 17 -16 15 -20z m693 -7 c2 -26 -22 -34 -39 -13
-7 8 -8 13 -2 9 7 -4 17 0 24 8 16 19 15 19 17 -4z m-682 -11 c4 -6 -6 -10
-22 -9 -25 0 -26 1 -8 9 11 5 21 9 22 9 1 1 5 -3 8 -9z m129 -4 c-6 -16 -34
-17 -34 -1 0 6 9 11 19 12 12 1 18 -3 15 -11z m-320 -37 c-8 -14 -34 -10 -34
5 0 9 7 12 20 9 11 -3 17 -9 14 -14z m72 9 c4 -7 3 -8 -4 -4 -8 5 -12 0 -12
-13 0 -24 -25 -40 -51 -34 -30 8 -22 20 11 18 17 -1 30 2 30 7 0 4 -4 8 -10 8
-5 0 -10 5 -10 11 0 5 4 8 9 4 5 -3 12 -1 16 5 8 13 12 13 21 -2z m1013 -33
c0 -5 -4 -3 -9 5 -5 8 -9 22 -9 30 0 16 17 -16 18 -35z m-84 14 c-8 -12 38 -7
48 6 4 6 6 -4 3 -22 -3 -24 -1 -30 10 -26 8 3 14 0 14 -6 0 -24 -38 -11 -44
15 -7 25 -8 26 -22 8 -9 -11 -13 -13 -9 -6 3 6 2 12 -4 12 -5 0 -9 9 -8 19 0
11 5 17 9 15 5 -3 6 -10 3 -15z m-1117 -91 c-2 -5 -6 -8 -9 -6 -3 2 -14 -4
-24 -12 -17 -14 -18 -13 -12 2 4 12 2 15 -9 11 -7 -3 -14 0 -14 6 0 6 16 10
35 9 20 -1 34 -5 33 -10z m1262 4 c0 -1 -8 -11 -17 -22 -18 -18 -18 -18 -19 4
-1 15 4 22 17 22 11 0 19 -2 19 -4z m78 -11 c2 -7 -4 -21 -14 -32 -9 -10 -15
-22 -11 -25 9 -9 28 6 22 17 -4 5 1 9 9 9 10 0 13 6 10 18 -5 14 -4 14 4 2 8
-10 8 -18 1 -27 -6 -7 -8 -17 -5 -22 4 -6 -5 -9 -21 -8 -24 2 -28 7 -28 34 0
39 -14 55 -22 25 -6 -23 -18 -29 -28 -13 -8 14 31 38 57 36 12 -1 24 -7 26
-14z m-1331 -41 c9 0 13 -3 9 -7 -9 -9 -46 -11 -40 -2 2 4 1 9 -3 12 -5 2 -2
2 5 0 8 -1 21 -3 29 -3z m1268 -1 c19 -9 19 -9 -1 -6 -12 3 -29 0 -38 -5 -10
-6 -16 -5 -16 1 0 8 17 19 30 20 3 0 14 -5 25 -10z m221 -74 c-19 -19 -21 -19
-24 -2 -2 9 -8 14 -14 11 -6 -4 -9 -3 -5 2 3 5 19 9 35 9 l30 0 -22 -20z
m-1759 -40 c0 -8 -4 -15 -9 -15 -4 0 -8 7 -8 15 0 8 4 15 8 15 5 0 9 -7 9 -15z
m1765 8 c-6 -2 -9 -10 -6 -15 4 -7 2 -8 -5 -4 -13 9 -5 26 12 25 9 0 8 -2 -1
-6z m121 -78 c-3 -9 -8 -14 -10 -11 -3 3 -2 9 2 15 9 16 15 13 8 -4z m-47 -22
c-10 -10 -19 5 -10 18 6 11 8 11 12 0 2 -7 1 -15 -2 -18z m111 -70 c-4 -3 -2
-12 5 -20 8 -10 8 -17 0 -25 -8 -8 -13 -3 -18 17 -5 20 -9 23 -15 13 -7 -10
-9 -9 -9 5 0 11 8 17 22 17 12 0 18 -3 15 -7z m43 -3 c0 -5 -5 -10 -11 -10 -5
0 -7 5 -4 10 3 6 8 10 11 10 2 0 4 -4 4 -10z m-10 -35 c-9 -10 -9 -15 -1 -15
6 0 11 -7 11 -16 0 -9 -6 -14 -12 -11 -12 3 -13 13 -9 47 0 6 6 10 12 10 8 0
8 -5 -1 -15z m-2192 -63 c14 12 14 11 1 -9 -9 -16 -16 -19 -21 -10 -4 7 -7 17
-7 22 0 6 3 4 6 -3 4 -10 8 -10 21 0z m72 -2 c0 -5 -4 -10 -9 -10 -6 0 -13 5
-16 10 -3 6 1 10 9 10 9 0 16 -4 16 -10z m-36 -19 c3 -5 -1 -11 -9 -14 -9 -4
-12 -1 -8 9 6 16 10 17 17 5z m-38 -46 c1 -8 -2 -15 -7 -15 -5 0 -9 10 -9 22
0 23 12 17 16 -7z m72 3 c-2 -12 -9 -23 -17 -26 -9 -3 -11 0 -5 9 7 12 5 12
-9 0 -9 -7 -17 -11 -17 -8 0 3 -3 12 -6 20 -4 11 1 13 22 9 19 -3 25 -1 20 7
-4 6 -2 11 4 11 6 0 10 -10 8 -22z m202 -1028 c0 -5 -7 -7 -15 -4 -8 4 -15 8
-15 10 0 2 7 4 15 4 8 0 15 -4 15 -10z m-33 -36 c-3 -3 -12 -4 -19 -1 -8 3 -5
6 6 6 11 1 17 -2 13 -5z m136 -80 c1 -10 6 -25 10 -31 5 -9 3 -11 -6 -7 -8 3
-19 16 -26 30 -6 15 -7 23 -1 19 5 -3 10 -1 10 6 0 18 9 6 13 -17z m90 6 c3
-11 1 -23 -4 -26 -5 -3 -9 6 -9 20 0 31 6 34 13 6z m-118 -20 c3 -5 -1 -10
-10 -10 -9 0 -13 5 -10 10 3 6 8 10 10 10 2 0 7 -4 10 -10z m-85 -715 c-6 -15
-6 -26 1 -30 5 -4 7 -11 3 -16 -3 -6 -11 -4 -18 6 -6 9 -20 17 -32 17 -33 3
-25 37 8 36 16 -1 31 2 35 5 12 12 13 7 3 -18z m130 1 c0 -13 3 -38 6 -55 6
-30 8 -31 60 -31 54 0 54 0 54 -31 0 -17 4 -28 10 -24 6 3 10 -1 10 -10 0 -9
-4 -14 -9 -11 -5 3 -11 -3 -14 -14 -3 -12 -14 -20 -27 -20 -24 0 -25 -30 -1
-38 9 -3 11 0 6 9 -5 8 -4 10 0 6 5 -4 10 -14 11 -22 2 -12 -2 -13 -19 -3 -19
10 -20 9 -10 -4 10 -11 10 -17 1 -26 -19 -19 -46 -14 -64 13 -9 14 -20 22 -25
19 -5 -3 -9 0 -9 5 0 13 -22 10 -32 -4 -12 -16 -9 -30 4 -17 17 17 29 15 22
-3 -3 -8 -16 -14 -29 -13 -15 2 -21 7 -17 17 3 8 1 12 -5 8 -5 -3 -10 0 -10 8
0 8 9 15 19 15 20 0 24 15 6 26 -6 4 -14 2 -16 -5 -3 -9 -7 -7 -16 4 -6 9 -25
17 -41 19 -17 2 -34 4 -40 5 -5 1 -2 6 8 12 13 8 22 7 33 -2 12 -10 17 -10 27
1 8 9 8 11 1 7 -7 -4 -23 2 -35 13 -13 11 -17 18 -8 15 9 -3 22 1 29 10 9 11
9 15 1 15 -8 0 -7 5 3 15 17 17 13 54 -6 67 -12 7 -3 12 16 9 5 -1 6 5 3 13
-8 21 2 26 55 26 44 0 48 -2 48 -24z m-156 -51 c-5 -11 1 -15 21 -15 15 0 24
-4 20 -10 -4 -6 -11 -8 -16 -5 -5 4 -9 -3 -9 -14 0 -13 -6 -21 -17 -21 -16 0
-16 2 -3 10 11 8 8 9 -12 4 -22 -5 -28 -3 -28 11 0 9 5 13 10 10 10 -6 14 7
11 33 -1 6 5 12 13 12 10 0 13 -6 10 -15z m361 -54 c3 -9 0 -11 -10 -7 -8 3
-15 1 -15 -3 0 -5 6 -11 13 -14 6 -3 2 -4 -11 -4 -16 1 -22 6 -19 18 3 12 -1
15 -14 12 -11 -3 -19 -1 -19 3 0 15 69 10 75 -5z m-375 -38 c0 -10 -4 -14 -8
-8 -4 6 -11 13 -16 18 -5 4 -2 7 7 7 10 0 17 -8 17 -17z m363 -25 c6 -22 -8
-24 -17 -2 -3 8 -11 12 -17 8 -7 -4 -9 -3 -6 3 10 16 35 11 40 -9z m-179 -127
c-9 -9 -32 22 -27 36 5 12 9 11 19 -8 7 -13 11 -26 8 -28z m123 -353 c-4 -14
0 -26 11 -34 15 -12 15 -13 -4 -11 -17 1 -21 7 -19 27 2 14 -2 28 -9 32 -7 5
-4 8 8 8 14 0 17 -5 13 -22z m54 -12 c-9 -11 -8 -17 4 -29 14 -14 13 -16 -4
-14 -15 1 -19 7 -16 27 3 31 3 30 16 30 8 0 8 -4 0 -14z m-37 -57 c-4 -7 0 -9
14 -5 11 4 23 2 27 -5 6 -8 9 -8 15 0 5 9 11 7 21 -5 12 -15 12 -17 0 -9 -12
7 -13 1 -8 -30 3 -20 9 -40 12 -43 9 -10 24 19 18 35 -3 7 0 13 5 13 6 0 9
-12 6 -27 -4 -25 -3 -26 10 -10 14 18 32 24 21 7 -3 -5 -1 -10 4 -10 6 0 11
-4 11 -9 0 -6 -21 -10 -47 -10 -27 1 -52 0 -58 -1 -5 -1 -29 -2 -52 -1 l-41 1
2 45 c3 43 19 75 38 75 5 0 6 -5 2 -11z m154 -24 c-10 -10 -58 -16 -58 -7 0 4
14 9 32 10 18 2 29 0 26 -3z m792 -119 c0 -3 -4 -8 -10 -11 -5 -3 -10 -1 -10
4 0 6 5 11 10 11 6 0 10 -2 10 -4z m5 -64 c-1 -1 -9 0 -18 4 -13 4 -14 9 -4
19 10 11 13 10 18 -4 4 -9 5 -17 4 -19z"/>
<path d="M2007 4143 c-10 -9 -9 -23 2 -23 5 0 11 7 15 15 5 15 -5 20 -17 8z"/>
<path d="M2240 3940 c0 -41 3 -50 18 -51 9 0 55 -1 102 -2 l85 -2 3 53 3 52
-105 0 -106 0 0 -50z"/>
<path d="M1713 3883 c-8 -3 -13 -23 -13 -54 l0 -49 -50 0 -50 0 0 -55 0 -55
-55 0 -55 0 0 -54 0 -54 253 -1 c138 0 282 0 319 0 l67 -1 3 -52 c3 -49 5 -53
28 -54 14 0 35 -4 48 -8 13 -5 22 -3 22 3 0 7 39 11 110 11 l110 0 0 -55 0
-55 105 0 105 0 0 -50 0 -50 55 0 55 0 0 50 0 50 -55 0 -55 0 0 55 0 55 -104
0 -105 0 -3 53 -3 52 -120 2 c-66 1 -137 2 -157 2 l-38 1 0 104 0 105 53 3 52
3 1 48 1 47 -53 0 -54 0 0 -49 0 -50 -52 -3 -52 -3 -1 -50 -1 -50 -162 -3
-162 -2 0 55 0 55 56 0 55 0 -3 53 -3 52 -40 1 c-22 0 -46 -1 -52 -3z"/>
<path d="M1307 3674 c-10 -10 4 -34 22 -35 12 0 12 -2 -4 -9 -19 -8 -19 -9 -1
-9 18 -1 18 -2 2 -19 -15 -18 -15 -19 17 -18 34 1 35 3 28 49 0 5 -5 5 -11 2
-5 -3 -10 3 -10 13 0 11 -7 23 -16 26 -19 7 -19 7 -27 0z"/>
<path d="M2198 3423 c7 -3 16 -2 19 1 4 3 -2 6 -13 5 -11 0 -14 -3 -6 -6z"/>
<path d="M2153 3363 c9 -2 23 -2 30 0 6 3 -1 5 -18 5 -16 0 -22 -2 -12 -5z"/>
<path d="M2980 3085 l0 -265 23 -1 c89 -4 82 1 85 -57 l3 -53 52 3 52 3 0 50
0 50 -52 3 -53 3 0 265 0 264 -55 0 -55 0 0 -265z"/>
<path d="M2112 3310 c0 -14 2 -19 5 -12 2 6 2 18 0 25 -3 6 -5 1 -5 -13z"/>
<path d="M2031 3304 c0 -11 3 -14 6 -6 3 7 2 16 -1 19 -3 4 -6 -2 -5 -13z"/>
<path d="M2070 3301 c0 -6 4 -13 10 -16 6 -3 7 1 4 9 -7 18 -14 21 -14 7z"/>
<path d="M2030 3260 c0 -5 5 -10 11 -10 5 0 7 5 4 10 -3 6 -8 10 -11 10 -2 0
-4 -4 -4 -10z"/>
<path d="M2100 3260 c0 -5 5 -10 10 -10 6 0 10 5 10 10 0 6 -4 10 -10 10 -5 0
-10 -4 -10 -10z"/>
<path d="M2775 3242 c-3 -3 -5 -173 -5 -379 l0 -373 -55 0 -55 0 0 -105 0
-105 55 0 55 0 0 104 0 105 53 3 52 3 1 360 c0 198 -3 366 -7 374 -6 13 -83
24 -94 13z"/>
<path d="M2240 2760 l0 -160 50 0 50 0 0 -50 0 -50 55 0 55 0 0 50 0 50 50 0
50 0 0 160 0 160 -50 0 -50 0 0 -105 0 -105 -55 0 -55 0 0 105 0 105 -50 0
-50 0 0 -160z"/>
<path d="M1820 2551 l0 -46 46 -1 45 -2 -3 46 -3 46 -42 2 -43 2 0 -47z m53
14 c4 -8 3 -16 -1 -19 -4 -3 -9 4 -9 15 -2 23 3 25 10 4z"/>
<path d="M3190 2390 l0 -109 -82 0 c-141 1 -128 6 -128 -50 l0 -50 -52 -3 -53
-3 -3 -52 -3 -53 -105 0 -104 0 0 -55 0 -55 55 0 55 0 0 -50 0 -50 50 0 c33 0
50 4 51 13 0 6 0 54 -1 105 l-1 92 55 0 55 0 3 51 3 51 80 3 c44 2 92 4 106 4
25 1 25 3 21 51 l-4 50 56 0 56 0 0 110 0 110 -55 0 -55 0 0 -110z"/>
<path d="M1710 2464 c0 -18 4 -22 18 -18 16 5 16 5 0 -6 -10 -6 -18 -20 -18
-31 0 -14 4 -18 13 -12 16 10 28 11 55 1 23 -8 26 -3 25 47 -1 43 -3 44 -48
43 -40 0 -45 -3 -45 -24z m53 1 c-3 -9 -8 -14 -10 -11 -3 3 -2 9 2 15 9 16 15
13 8 -4z m24 -7 c-3 -8 -6 -5 -6 6 -1 11 2 17 5 13 3 -3 4 -12 1 -19z m7 -29
c3 -3 -6 -5 -19 -5 -14 0 -25 4 -25 8 0 8 36 6 44 -3z"/>
<path d="M1860 2381 l-45 -6 -1 -42 0 -43 47 0 48 0 -2 50 c0 28 -1 49 -2 48
0 0 -20 -4 -45 -7z m30 -26 c-7 -9 -15 -13 -19 -10 -3 3 1 10 9 15 21 14 24
12 10 -5z m-53 -40 c0 -8 -4 -12 -9 -9 -5 3 -6 10 -3 15 9 13 12 11 12 -6z
m47 0 c3 -8 1 -15 -4 -15 -6 0 -10 7 -10 15 0 8 2 15 4 15 2 0 6 -7 10 -15z"/>
<path d="M2240 2225 l0 -55 209 0 209 0 4 43 c3 23 3 48 0 55 -3 9 -55 12
-213 12 l-209 0 0 -55z"/>
<path d="M2587 1962 l-37 -3 4 -43 c5 -53 -2 -64 -34 -60 -14 1 -35 0 -48 -3
-21 -5 -23 -10 -20 -57 l3 -51 50 0 50 0 1 50 0 50 50 5 49 5 3 51 c3 57 -2
62 -71 56z"/>
<path d="M1920 1906 l0 -53 33 0 c73 -1 67 13 67 -158 l0 -155 55 0 55 0 0
210 0 210 -105 0 -105 0 0 -54z"/>
<path d="M2683 1852 c-22 -3 -23 -7 -23 -108 l0 -104 55 0 55 0 0 104 0 104
-32 3 c-18 2 -43 3 -55 1z"/>
<path d="M2468 1642 c-18 -4 -25 -31 -19 -74 3 -27 6 -28 57 -28 l54 0 0 50
c0 28 -3 50 -7 51 -33 4 -71 4 -85 1z"/>
<path d="M2346 1532 c-4 -3 -6 -52 -6 -109 l0 -103 -50 0 -50 0 0 105 0 105
-55 0 -55 0 0 -105 0 -105 55 0 55 0 0 -53 0 -53 50 -1 50 -2 0 54 0 54 53 3
52 3 0 105 0 105 -47 1 c-26 1 -49 -1 -52 -4z"/>
<path d="M2655 1482 c1 -60 9 -72 43 -67 24 3 28 -1 28 -21 0 -13 -2 -21 -5
-19 -9 10 -29 -17 -24 -34 3 -10 0 -22 -6 -25 -7 -5 -9 4 -7 26 2 18 9 34 15
36 15 5 4 22 -15 22 -11 0 -14 -18 -14 -90 l0 -90 43 0 c36 0 43 3 44 20 1 11
-3 20 -8 20 -6 0 -7 -4 -4 -10 3 -6 -5 -10 -19 -10 -15 0 -30 8 -36 20 -8 16
-8 20 4 20 10 0 13 -6 10 -15 -4 -10 0 -15 11 -15 10 0 14 5 9 13 -4 6 -4 9 1
5 4 -4 14 -3 22 3 15 13 18 43 3 34 -6 -3 -7 1 -4 9 3 9 10 16 15 16 5 0 9 8
9 18 0 13 -2 14 -9 4 -7 -11 -10 -10 -15 3 -3 9 -6 24 -5 33 0 14 2 13 9 -3 8
-19 9 -19 9 2 1 12 -5 24 -11 26 -14 6 11 9 77 10 l40 1 3 -50 3 -51 92 -8
c51 -4 97 -7 102 -6 8 1 47 5 113 10 9 1 12 29 12 106 l0 105 -49 0 -50 0 -3
-51 -3 -50 -107 -3 -108 -2 0 53 0 53 -107 0 -108 0 0 -48z m73 -159 c-16 -15
-16 -17 0 -30 15 -13 14 -13 -5 -3 -25 12 -25 12 -17 34 3 9 13 16 22 16 15 0
15 -2 0 -17z"/>
<path d="M2990 1285 c0 -7 7 -15 15 -19 8 -3 15 -1 15 4 0 6 1 13 3 17 1 3 -6
7 -15 9 -10 1 -18 -4 -18 -11z"/>
<path d="M3033 1285 c0 -8 4 -15 9 -15 4 0 8 7 8 15 0 8 -4 15 -8 15 -5 0 -9
-7 -9 -15z"/>
<path d="M3065 1290 c-3 -5 -1 -10 4 -10 6 0 11 5 11 10 0 6 -2 10 -4 10 -3 0
-8 -4 -11 -10z"/>
<path d="M3033 1260 c-31 -13 -29 -18 7 -15 17 1 30 -1 30 -6 0 -5 -17 -8 -37
-6 -27 2 -37 8 -35 18 2 8 0 10 -4 6 -4 -4 -9 -14 -10 -22 -2 -12 10 -15 50
-15 51 0 53 1 48 25 -5 27 -13 29 -49 15z"/>
<path d="M2782 1200 c0 -3 0 -7 -2 -10 -1 -3 -2 -21 -3 -41 l-2 -36 100 -1
100 -1 -3 50 c-2 27 -8 49 -13 49 -5 0 -6 -15 -3 -32 3 -18 2 -29 -3 -23 -12
15 -63 13 -63 -2 0 -7 -5 -13 -12 -13 -6 0 -9 3 -5 6 3 3 2 17 -3 29 -6 16 -5
25 3 28 7 3 -11 4 -40 4 -28 -1 -51 -4 -51 -7z m67 -32 c-7 -14 -14 -17 -21
-10 -6 6 -17 8 -24 5 -9 -3 -14 2 -14 13 0 15 2 16 9 5 6 -9 11 -10 15 -2 4 6
12 9 17 6 5 -4 9 -1 9 5 0 6 5 8 10 5 7 -4 6 -13 -1 -27z m18 -15 c-4 -3 -1
-13 6 -21 10 -13 9 -14 -11 -3 -22 12 -22 31 0 31 6 0 8 -3 5 -7z m-37 -23 c0
-10 -27 -7 -37 5 -4 4 -2 5 5 1 6 -4 12 -2 12 4 0 6 5 8 10 5 6 -3 10 -10 10
-15z m94 8 c-3 -4 -9 -8 -15 -8 -5 0 -9 4 -9 8 0 5 7 9 15 9 8 0 12 -4 9 -9z"/>
<path d="M2887 1198 c-7 -20 18 -32 41 -18 15 8 14 9 -5 10 -12 0 -23 5 -25
12 -3 8 -7 6 -11 -4z"/>
<path d="M1470 1479 c0 -5 5 -7 10 -4 6 3 10 8 10 11 0 2 -4 4 -10 4 -5 0 -10
-5 -10 -11z"/>
<path d="M1550 1407 c0 -7 8 -13 18 -13 10 0 19 6 19 13 0 7 -9 13 -19 13 -10
0 -18 -6 -18 -13z"/>
<path d="M1605 1393 c6 -4 10 -15 10 -23 -1 -18 14 -30 35 -29 10 0 8 3 -5 9
-11 5 -15 9 -9 9 16 1 25 28 11 28 -7 0 -21 4 -32 8 -11 4 -15 3 -10 -2z"/>
<path d="M1420 1540 c0 -5 5 -10 11 -10 5 0 7 5 4 10 -3 6 -8 10 -11 10 -2 0
-4 -4 -4 -10z"/>
</g>
</svg>
